name D:\school\WTK\thesis\model\3dpredictsim\Results\batch_windlass\Pog_s1_tmt_aCst_d00_k500_WL20_ig24_act_TTC.mot
datacolumns 128
datarows 4
range 1.16380493 1.19871908
endheader
time	pelvis_tilt	pelvis_list	pelvis_rotation	pelvis_tx	pelvis_ty	pelvis_tz	hip_flexion_l	hip_adduction_l	hip_rotation_l	hip_flexion_r	hip_adduction_r	hip_rotation_r	knee_angle_l	knee_angle_r	ankle_angle_l	ankle_angle_r	subtalar_angle_l	subtalar_angle_r	tmt_angle_l	tmt_angle_r	mtp_angle_l	mtp_angle_r	lumbar_extension	lumbar_bending	lumbar_rotation	arm_flex_l	arm_add_l	arm_rot_l	arm_flex_r	arm_add_r	arm_rot_r	elbow_flex_l	elbow_flex_r	pro_sup_l	pro_sup_r	glut_med1_l/activation	glut_med2_l/activation	glut_med3_l/activation	glut_min1_l/activation	glut_min2_l/activation	glut_min3_l/activation	semimem_l/activation	semiten_l/activation	bifemlh_l/activation	bifemsh_l/activation	sar_l/activation	add_long_l/activation	add_brev_l/activation	add_mag1_l/activation	add_mag2_l/activation	add_mag3_l/activation	tfl_l/activation	pect_l/activation	grac_l/activation	glut_max1_l/activation	glut_max2_l/activation	glut_max3_l/activation	iliacus_l/activation	psoas_l/activation	quad_fem_l/activation	gem_l/activation	peri_l/activation	rect_fem_l/activation	vas_med_l/activation	vas_int_l/activation	vas_lat_l/activation	med_gas_l/activation	lat_gas_l/activation	soleus_l/activation	tib_post_l/activation	flex_dig_l/activation	flex_hal_l/activation	tib_ant_l/activation	per_brev_l/activation	per_long_l/activation	per_tert_l/activation	ext_dig_l/activation	ext_hal_l/activation	ercspn_l/activation	intobl_l/activation	extobl_l/activation	glut_med1_r/activation	glut_med2_r/activation	glut_med3_r/activation	glut_min1_r/activation	glut_min2_r/activation	glut_min3_r/activation	semimem_r/activation	semiten_r/activation	bifemlh_r/activation	bifemsh_r/activation	sar_r/activation	add_long_r/activation	add_brev_r/activation	add_mag1_r/activation	add_mag2_r/activation	add_mag3_r/activation	tfl_r/activation	pect_r/activation	grac_r/activation	glut_max1_r/activation	glut_max2_r/activation	glut_max3_r/activation	iliacus_r/activation	psoas_r/activation	quad_fem_r/activation	gem_r/activation	peri_r/activation	rect_fem_r/activation	vas_med_r/activation	vas_int_r/activation	vas_lat_r/activation	med_gas_r/activation	lat_gas_r/activation	soleus_r/activation	tib_post_r/activation	flex_dig_r/activation	flex_hal_r/activation	tib_ant_r/activation	per_brev_r/activation	per_long_r/activation	per_tert_r/activation	ext_dig_r/activation	ext_hal_r/activation	ercspn_r/activation	intobl_r/activation	extobl_r/activation	
          1.16380493	         -2.92896069	         -0.20900378	          8.41111208	          1.45475617	          0.85992482	         -0.00127120	        -14.71760396	         -2.19000486	          7.91144923	         32.34029789	         -1.19707963	         -2.19902676	        -18.60218632	        -21.73038691	        -13.65461948	         -2.59828831	         18.90577499	          9.10409755	         -6.95006437	         -0.02747771	         36.51883867	          0.35188628	          1.20656821	         -2.60495052	         -2.60282809	          2.87065958	        -13.48279795	         15.44013683	        -17.33849004	        -13.82044399	          7.63578812	         43.14037029	         23.40581195	         86.51662706	         86.51662706	          0.14218441	          0.08080263	          0.06689865	          0.17799178	          0.13277700	          0.09095667	          0.05001012	          0.05000231	          0.05000250	          0.05000111	          0.08615758	          0.14081170	          0.05002329	          0.05000982	          0.05001533	          0.05946042	          0.18619235	          0.05001292	          0.05000339	          0.05001061	          0.05000958	          0.05000893	          0.33520402	          0.44293617	          0.05000099	          0.05000482	          0.05382862	          0.24655324	          0.09666592	          0.09525694	          0.07829721	          0.13626654	          0.19932760	          0.05000020	          0.13805118	          0.15245782	          0.15683354	          0.23108109	          0.59353989	          0.41944950	          0.63605431	          0.52037358	          0.23638702	          0.05000011	          0.06781527	          0.05000107	          0.05240880	          0.05108813	          0.05969835	          0.05001703	          0.05001574	          0.05001274	          0.13149451	          0.07127862	          0.14566852	          0.07127805	          0.05647668	          0.05475753	          0.08552703	          0.12433711	          0.09692503	          0.09550631	          0.05000600	          0.05001194	          0.07128624	          0.05969799	          0.06183862	          0.10683008	          0.07253142	          0.07294952	          0.11248840	          0.05969691	          0.05001118	          0.05000034	          0.05000080	          0.05000109	          0.05000093	          0.07128245	          0.07314718	          0.07127801	          0.06417300	          0.05000481	          0.05000291	          0.32753894	          0.16308792	          0.10161292	          0.07680883	          0.44220357	          0.12466952	          0.05000028	          0.13254575	          0.14037121	
          1.17544298	         -2.92099056	         -0.17894064	          8.59056611	          1.47333590	          0.85847513	         -0.00096009	        -14.78289827	         -2.42494722	          7.63266395	         31.95965692	         -0.99418231	         -1.95474212	        -19.84733769	        -21.88338664	        -16.33638408	         -2.89264029	         19.20431680	          8.69438618	         -7.35862354	         -0.04874674	         36.76346358	          0.41562395	          1.41705526	         -2.39682639	         -2.68303346	          2.57390661	        -13.53025627	         15.81125795	        -18.57985456	        -13.79489265	          7.84088160	         43.95045485	         23.22691207	         86.51662706	         86.51662706	          0.11908606	          0.06767637	          0.05603310	          0.14907632	          0.11120704	          0.07618164	          0.05198621	          0.05969859	          0.05969740	          0.05969994	          0.07216407	          0.16317686	          0.18106615	          0.06337483	          0.05002464	          0.05000367	          0.15594460	          0.08510317	          0.07128506	          0.05001741	          0.05001432	          0.05001475	          0.28074827	          0.37097887	          0.09392656	          0.05001485	          0.05000960	          0.20649915	          0.08096204	          0.07978196	          0.06557742	          0.11412921	          0.16694564	          0.05000007	          0.11562394	          0.12769025	          0.13135505	          0.37574426	          0.54993529	          0.38740359	          0.79506042	          0.67252597	          0.28282619	          0.05000006	          0.05899870	          0.06954591	          0.11153093	          0.05000205	          0.05000236	          0.05969474	          0.05001511	          0.05000645	          0.11013250	          0.05969919	          0.12200389	          0.05969868	          0.05969734	          0.08510293	          0.08510671	          0.10414863	          0.13233474	          0.13470613	          0.05000168	          0.05972156	          0.05970614	          0.05000256	          0.05179377	          0.15099214	          0.06074928	          0.06109937	          0.09421467	          0.05000725	          0.12169452	          0.05000144	          0.19056724	          0.18202700	          0.16355459	          0.05970219	          0.06126400	          0.05969847	          0.10340663	          0.05000586	          0.05245722	          0.50718234	          0.13659335	          0.08510530	          0.47725657	          0.56565770	          0.42055870	          0.05000013	          0.11101290	          0.11756706	
          1.18708103	         -2.90708610	         -0.16247594	          8.73625603	          1.49200910	          0.85645645	         -0.00064531	        -14.65209296	         -2.63625134	          7.35397626	         31.48977781	         -0.73398828	         -1.63398589	        -21.57280922	        -22.67916770	        -18.40433311	         -3.01494425	         19.42014500	          8.22798605	         -7.32105310	         -0.02234529	         35.18419457	          0.47153891	          1.62530375	         -2.15835321	         -2.74911317	          2.23983529	        -13.60284841	         16.14372467	        -19.75223252	        -13.78615035	          8.15624082	         44.74768433	         22.93350976	         86.51662706	         86.51662706	          0.09974002	          0.05668261	          0.05956923	          0.12485837	          0.09314120	          0.06380636	          0.08687435	          0.05000101	          0.05000126	          0.05000162	          0.06044239	          0.21241327	          0.26778477	          0.19164543	          0.05001564	          0.05000674	          0.13061069	          0.07128277	          0.05970524	          0.05001048	          0.05000639	          0.05000415	          0.23513909	          0.31071125	          0.12509001	          0.05970328	          0.05969965	          0.17295210	          0.08510331	          0.08510333	          0.08510338	          0.09558824	          0.13982436	          0.07197001	          0.09684015	          0.10694638	          0.11001573	          0.46580109	          0.49300018	          0.33959443	          0.66589825	          0.78948311	          0.23687942	          0.07713456	          0.05000044	          0.05824795	          0.22207025	          0.14706422	          0.21606824	          0.05000124	          0.05000187	          0.05001078	          0.09224085	          0.05000087	          0.10218366	          0.05000037	          0.05000091	          0.07127796	          0.07128122	          0.14027327	          0.18349143	          0.14451663	          0.05012758	          0.05002374	          0.05000699	          0.14381735	          0.14310228	          0.17287013	          0.05088041	          0.05117385	          0.08332662	          0.05000279	          0.10192624	          0.05969940	          0.33150447	          0.30142289	          0.26749542	          0.05000322	          0.05131132	          0.05000009	          0.13975863	          0.05000216	          0.05000078	          0.51514033	          0.11440298	          0.07127946	          0.39972434	          0.47376405	          0.35223693	          0.05000021	          0.09297818	          0.09846758	
          1.19871908	         -2.88915284	         -0.14617636	          8.83793040	          1.51065719	          0.85417725	         -0.00034175	        -14.34649357	         -2.81932282	          7.09480525	         30.80922163	         -0.43842096	         -1.26262553	        -23.70647583	        -23.79133205	        -19.90703791	         -2.41945725	         19.59991469	          7.74298122	         -6.81161002	          0.03976492	         31.69702591	          0.20330784	          1.82947680	         -1.90665034	         -2.79967871	          1.88737510	        -13.68492180	         16.43904469	        -20.80292838	        -13.78501896	          8.59426019	         45.47402856	         22.47611003	         86.51662706	         86.51662706	          0.08353818	          0.05000177	          0.05000062	          0.10457478	          0.07801036	          0.05344178	          0.12718538	          0.05000050	          0.05000140	          0.05000042	          0.05062425	          0.17790577	          0.25406827	          0.16051246	          0.06161323	          0.08051602	          0.10939247	          0.05970390	          0.05000729	          0.05001442	          0.05001407	          0.05001165	          0.19693938	          0.26023460	          0.10476886	          0.05000649	          0.05000150	          0.14485497	          0.07127788	          0.07127789	          0.07127789	          0.08005937	          0.11710911	          0.06027808	          0.08110794	          0.08957258	          0.09214319	          0.41314778	          0.41290951	          0.28442538	          0.58758705	          0.88145647	          0.57028034	          0.11962214	          0.05000012	          0.05000046	          0.25950563	          0.40496297	          0.55856431	          0.17690190	          0.17462560	          0.45939027	          0.07725583	          0.06418354	          0.08558339	          0.06329168	          0.05969893	          0.05969881	          0.05970152	          0.11748542	          0.15368287	          0.15469228	          0.05000090	          0.05969881	          0.06742213	          0.30454453	          0.24529889	          0.20708930	          0.05969825	          0.05004918	          0.06978998	          0.17466333	          0.29554786	          0.05000092	          0.32745307	          0.35768460	          0.32564855	          0.05000010	          0.05000020	          0.05000002	          0.20363320	          0.14782004	          0.05000835	          0.47435559	          0.09581758	          0.05969972	          0.33478688	          0.40397679	          0.35551612	          0.05299158	          0.07787332	          0.08247093	
